<?xml version="1.0" encoding="UTF-8" standalone="no"?>
<!-- Created with Inkscape (http://www.inkscape.org/) -->

<svg
   width="210mm"
   height="210mm"
   viewBox="0 0 210 210"
   version="1.1"
   id="svg5"
   xml:space="preserve"
   inkscape:export-filename="bitmap.svg"
   inkscape:export-xdpi="96"
   inkscape:export-ydpi="96"
   xmlns:inkscape="http://www.inkscape.org/namespaces/inkscape"
   xmlns:sodipodi="http://sodipodi.sourceforge.net/DTD/sodipodi-0.dtd"
   xmlns="http://www.w3.org/2000/svg"
   xmlns:svg="http://www.w3.org/2000/svg"><sodipodi:namedview
     id="namedview7"
     pagecolor="#ffffff"
     bordercolor="#000000"
     borderopacity="0.25"
     inkscape:showpageshadow="2"
     inkscape:pageopacity="0.0"
     inkscape:pagecheckerboard="0"
     inkscape:deskcolor="#d1d1d1"
     inkscape:document-units="mm"
     showgrid="false" /><defs
     id="defs2" /><g
     inkscape:label="Layer 1"
     inkscape:groupmode="layer"
     id="layer1"><path
       style="display:inline;fill:#000000;stroke-width:0.352778"
       d="m 9.5347095,164.21549 c -1.2968511,-1.29685 -0.6983961,-2.4908 4.4465945,-8.87122 8.223655,-10.19834 14.383475,-17.03464 18.793766,-20.85775 2.063041,-1.78836 2.081119,-1.8199 1.058334,-1.84621 -5.345013,-0.13749 -10.607671,0.66094 -16.396101,2.48757 -4.0581,1.28059 -4.223625,1.28874 -4.223625,0.20808 0,-1.6342 3.186622,-9.92362 5.975925,-15.54527 13.061481,-26.324555 41.222306,-47.730665 72.869908,-55.391165 8.910289,-2.15679 14.065719,-2.75819 23.812509,-2.77779 9.79843,-0.0197 13.83921,0.4322 21.80461,2.43853 8.01853,2.01972 10.1282,3.49344 10.0457,7.01745 -0.0541,2.30999 -2.34714,9.37449 -4.32643,13.329 -3.1136,6.22078 -8.40961,12.48024 -14.64195,17.305625 -14.87913,11.52013 -36.909167,17.29351 -60.473802,15.84828 -3.864875,-0.23704 -7.505651,-0.59782 -8.090613,-0.80174 -1.829865,-0.63789 -2.196331,-3.28481 -0.680106,-4.91229 0.683881,-0.73406 0.875764,-0.75506 4.285784,-0.46912 1.96342,0.16463 7.617979,0.28284 12.565687,0.26267 7.320792,-0.0298 9.934963,-0.17956 14.039448,-0.80415 14.987242,-2.28066 27.312702,-7.47463 36.970242,-15.579325 6.47949,-5.43764 10.57114,-11.5178 13.22473,-19.65183 1.43371,-4.39473 1.47625,-4.32107 -3.22358,-5.58191 -8.61442,-2.31102 -20.10055,-3.19534 -29.84759,-2.29797 -34.531784,3.17919 -68.697417,25.71577 -83.2398,54.907225 -1.300695,2.61094 -2.286602,4.82545 -2.190906,4.92115 0.0957,0.0957 1.827836,-0.0789 3.849197,-0.38792 4.45733,-0.68149 10.461852,-0.51163 13.640651,0.38587 l 2.204336,0.62237 2.028997,-0.87825 c 5.368829,-2.32389 10.609498,-2.70172 23.851365,-1.71962 29.966105,2.22249 57.8407,-6.17079 73.28509,-22.06675 7.90033,-8.131325 14.23622,-19.942745 19.55717,-36.458625 3.73425,-11.590885 10.48682,-19.431842 19.35902,-22.479354 2.57885,-0.885807 3.31349,-0.979361 7.61664,-0.969953 4.31227,0.0094 4.98582,0.09897 7.12487,0.947227 2.50005,0.991406 5.34896,2.71312 7.25411,4.383959 2.9569,2.593236 1.87328,10.026941 -2.44673,16.784641 -2.6301,4.11422 -5.81135,6.86998 -13.16698,11.40593 -5.21171,3.21388 -12.30714,6.86089 -13.34817,6.86089 -1.36013,0 -2.70349,-1.28458 -2.70146,-2.58325 0.003,-1.71843 1.15025,-2.71752 6.34824,-5.52685 10.10809,-5.46308 15.03806,-9.05069 17.45406,-12.70161 1.83247,-2.7691 2.64731,-5.05741 2.89004,-8.116072 l 0.18197,-2.293055 -1.70817,-1.135617 c -2.60414,-1.731272 -4.50513,-2.289039 -7.88178,-2.312593 -7.66145,-0.05344 -14.13671,4.40543 -18.67395,12.858907 -0.76272,1.42106 -2.41294,5.69868 -3.66713,9.50583 -4.14755,12.58998 -8.54844,21.256 -16.4429,32.378625 -13.48085,18.99336 -34.45175,37.72072 -57.524363,51.37021 -6.196267,3.66564 -6.365776,3.4588 2.645833,3.22853 22.95249,-0.58651 40.64038,-6.6246 54.43654,-18.58294 11.6348,-10.08489 17.82416,-24.91698 13.28117,-31.8268 -1.22167,-1.85815 -2.65053,-2.48744 -6.07117,-2.67383 l -2.91181,-0.15866 0.76601,-1.27861 c 0.4213,-0.70323 1.32024,-1.97107 1.99765,-2.81741 1.20446,-1.504855 1.26986,-1.535145 2.96283,-1.372475 0.99075,0.09521 2.73403,0.677925 4.07588,1.362425 2.87432,1.46626 4.63602,3.63756 5.74193,7.07694 1.09733,3.41272 0.86165,9.36823 -0.5421,13.69831 -4.67946,14.43447 -17.9512,27.48728 -35.47198,34.88682 -10.94565,4.62267 -22.47597,7.01856 -36.853839,7.65789 -5.435804,0.24171 -17.619902,-0.33278 -19.974083,-0.94179 -2.900116,-0.75024 -4.026091,-2.90228 -2.339111,-4.47066 0.436562,-0.40588 2.936875,-1.88598 5.55625,-3.28912 12.042976,-6.45115 24.152203,-14.46474 34.043063,-22.52885 3.78385,-3.08502 10.60111,-9.12941 12.34722,-10.94742 1.29319,-1.34644 1.33188,-1.43933 0.46301,-1.11155 -0.52145,0.19672 -1.71208,0.7437 -2.64583,1.2155 -3.24037,1.63729 -11.48016,4.51585 -16.84281,5.88403 -13.111923,3.34525 -25.650552,4.10847 -43.76882,2.66421 -8.657675,-0.69013 -12.833636,-0.0332 -18.168056,2.85801 -5.562239,3.01469 -12.321234,9.24933 -19.764547,18.23123 -5.220905,6.3001 -5.081323,6.03075 -2.960426,5.7127 4.76159,-0.71404 11.515462,-3.36677 15.553578,-6.10901 2.641885,-1.79406 5.770875,-5.15493 6.861256,-7.3697 0.653473,-1.32734 0.848521,-2.32697 0.88092,-4.51484 l 0.04161,-2.81004 2.075053,-1.1545 c 1.141279,-0.63498 2.254233,-1.1564 2.473227,-1.15871 1.383742,-0.0146 1.871969,6.80724 0.723974,10.11588 -2.837522,8.17804 -11.79805,14.45428 -25.595526,17.92795 -7.33945,1.84778 -13.604349,2.43912 -14.6597565,1.38371 z M 181.10877,60.727545 c -2.24319,-2.24319 -0.76749,-6.377137 2.27645,-6.377137 1.67924,0 2.80731,0.565188 3.51322,1.760187 0.9584,1.62245 0.75808,3.07864 -0.61198,4.4487 -1.62707,1.62707 -3.65304,1.6929 -5.17769,0.16825 z"
       id="path239" /></g></svg>
